<?xml version="1.0" standalone="no"?>
<!DOCTYPE svg PUBLIC "-//W3C//DTD SVG 20010904//EN"
 "http://www.w3.org/TR/2001/REC-SVG-20010904/DTD/svg10.dtd">
<svg version="1.0" xmlns="http://www.w3.org/2000/svg"
 width="612.000000pt" height="612.000000pt" viewBox="0 0 612.000000 612.000000"
 preserveAspectRatio="xMidYMid meet">
<metadata>
Created by potrace 1.14, written by Peter Selinger 2001-2017
</metadata>
<g transform="translate(0.000000,612.000000) scale(0.100000,-0.100000)"
fill="#000000" stroke="none">
<path d="M2859 6116 c-2 -2 -43 -6 -90 -10 -218 -17 -511 -83 -755 -171 -225
-82 -460 -201 -661 -336 -72 -48 -191 -135 -203 -149 -3 -3 -27 -23 -55 -45
-125 -100 -265 -243 -419 -425 -163 -194 -353 -521 -459 -790 -107 -273 -165
-507 -201 -818 -13 -107 -14 -531 -1 -622 3 -25 10 -81 16 -125 9 -66 24 -150
54 -287 2 -9 13 -50 24 -90 280 -998 1027 -1780 2005 -2099 167 -54 410 -110
546 -124 36 -4 74 -9 85 -12 38 -9 511 -11 600 -2 974 98 1824 630 2330 1459
239 393 394 862 432 1315 10 111 9 500 0 575 -13 100 -17 125 -23 170 -4 36
-31 169 -49 250 -30 133 -112 374 -182 530 -79 177 -250 470 -336 576 -8 10
-39 48 -67 84 -364 461 -887 821 -1459 1005 -167 53 -389 103 -541 120 -30 4
-68 9 -85 11 -36 6 -501 15 -506 10z"/>
</g>
</svg>
